<svg xmlns="http://www.w3.org/2000/svg" xmlns:xlink="http://www.w3.org/1999/xlink" version="1.1" x="0px" y="0px" viewBox="0 0 100 125" style="enable-background:new 0 0 100 100;" xml:space="preserve"><path d="M50,30c-11.028,0-20,8.972-20,20s8.972,20,20,20s20-8.972,20-20S61.028,30,50,30z M50,68c-9.925,0-18-8.075-18-18  s8.075-18,18-18s18,8.075,18,18S59.925,68,50,68z M61,46H39c-0.552,0-1,0.448-1,1v6c0,0.552,0.448,1,1,1h22c0.552,0,1-0.448,1-1v-6  C62,46.448,61.552,46,61,46z M60,52H40v-4h20V52z"/><text x="0" y="115" fill="#000000" font-size="5px" font-weight="bold" font-family="'Helvetica Neue', Helvetica, Arial-Unicode, Arial, Sans-serif">Created by Setyo Ari Wibowo</text><text x="0" y="120" fill="#000000" font-size="5px" font-weight="bold" font-family="'Helvetica Neue', Helvetica, Arial-Unicode, Arial, Sans-serif">from the Noun Project</text></svg>